<mxfile host="app.diagrams.net" modified="2021-10-09T18:05:27.543Z" agent="5.0 (X11; Linux x86_64) AppleWebKit/537.36 (KHTML, like Gecko) Chrome/85.0.4183.121 Safari/537.36" etag="SkPkIbK_SrANeHe_pK79" version="14.8.0" type="github">
  <diagram id="BbiA8Y8N8VMHT7lSSjlu" name="Page-1">
    <mxGraphModel dx="2031" dy="1076" grid="1" gridSize="10" guides="1" tooltips="1" connect="1" arrows="1" fold="1" page="1" pageScale="1" pageWidth="827" pageHeight="1169" math="0" shadow="0">
      <root>
        <mxCell id="0" />
        <mxCell id="1" parent="0" />
        <mxCell id="I9GEyZ0ykOGTKjr3v0vk-1" value="room" style="rounded=1;whiteSpace=wrap;html=1;labelPosition=center;verticalLabelPosition=top;align=center;verticalAlign=bottom;" vertex="1" parent="1">
          <mxGeometry x="690" y="160" width="180" height="110" as="geometry" />
        </mxCell>
        <mxCell id="I9GEyZ0ykOGTKjr3v0vk-50" style="edgeStyle=orthogonalEdgeStyle;rounded=0;orthogonalLoop=1;jettySize=auto;html=1;exitX=0;exitY=0.5;exitDx=0;exitDy=0;entryX=1;entryY=0.5;entryDx=0;entryDy=0;startArrow=none;startFill=0;endArrow=classic;endFill=1;" edge="1" parent="1" source="I9GEyZ0ykOGTKjr3v0vk-2" target="I9GEyZ0ykOGTKjr3v0vk-18">
          <mxGeometry relative="1" as="geometry" />
        </mxCell>
        <mxCell id="I9GEyZ0ykOGTKjr3v0vk-2" value="account" style="rounded=1;whiteSpace=wrap;html=1;labelPosition=center;verticalLabelPosition=top;align=center;verticalAlign=bottom;" vertex="1" parent="1">
          <mxGeometry x="690" y="300" width="180" height="110" as="geometry" />
        </mxCell>
        <mxCell id="I9GEyZ0ykOGTKjr3v0vk-52" style="edgeStyle=orthogonalEdgeStyle;rounded=0;orthogonalLoop=1;jettySize=auto;html=1;exitX=0;exitY=0.5;exitDx=0;exitDy=0;entryX=1;entryY=0.5;entryDx=0;entryDy=0;startArrow=none;startFill=0;endArrow=classic;endFill=1;" edge="1" parent="1" source="I9GEyZ0ykOGTKjr3v0vk-3" target="I9GEyZ0ykOGTKjr3v0vk-18">
          <mxGeometry relative="1" as="geometry" />
        </mxCell>
        <mxCell id="I9GEyZ0ykOGTKjr3v0vk-3" value="accounting-point" style="rounded=1;whiteSpace=wrap;html=1;labelPosition=center;verticalLabelPosition=top;align=center;verticalAlign=bottom;" vertex="1" parent="1">
          <mxGeometry x="690" y="440" width="180" height="110" as="geometry" />
        </mxCell>
        <mxCell id="I9GEyZ0ykOGTKjr3v0vk-53" style="edgeStyle=orthogonalEdgeStyle;rounded=0;orthogonalLoop=1;jettySize=auto;html=1;exitX=0;exitY=0.5;exitDx=0;exitDy=0;entryX=1;entryY=0.5;entryDx=0;entryDy=0;startArrow=none;startFill=0;endArrow=classic;endFill=1;" edge="1" parent="1" source="I9GEyZ0ykOGTKjr3v0vk-4" target="I9GEyZ0ykOGTKjr3v0vk-18">
          <mxGeometry relative="1" as="geometry" />
        </mxCell>
        <mxCell id="I9GEyZ0ykOGTKjr3v0vk-4" value="meter-values" style="rounded=1;whiteSpace=wrap;html=1;labelPosition=center;verticalLabelPosition=top;align=center;verticalAlign=bottom;" vertex="1" parent="1">
          <mxGeometry x="690" y="580" width="180" height="110" as="geometry" />
        </mxCell>
        <mxCell id="I9GEyZ0ykOGTKjr3v0vk-19" style="edgeStyle=orthogonalEdgeStyle;rounded=0;orthogonalLoop=1;jettySize=auto;html=1;startArrow=classic;startFill=1;" edge="1" parent="1" target="I9GEyZ0ykOGTKjr3v0vk-18">
          <mxGeometry relative="1" as="geometry">
            <mxPoint x="489" y="320" as="sourcePoint" />
          </mxGeometry>
        </mxCell>
        <mxCell id="I9GEyZ0ykOGTKjr3v0vk-68" style="edgeStyle=orthogonalEdgeStyle;rounded=0;orthogonalLoop=1;jettySize=auto;html=1;exitX=0.5;exitY=0;exitDx=0;exitDy=0;entryX=1;entryY=0.5;entryDx=0;entryDy=0;startArrow=none;startFill=0;endArrow=classic;endFill=1;" edge="1" parent="1" source="I9GEyZ0ykOGTKjr3v0vk-7" target="I9GEyZ0ykOGTKjr3v0vk-1">
          <mxGeometry relative="1" as="geometry">
            <Array as="points">
              <mxPoint x="489" y="130" />
              <mxPoint x="990" y="130" />
              <mxPoint x="990" y="215" />
            </Array>
          </mxGeometry>
        </mxCell>
        <mxCell id="I9GEyZ0ykOGTKjr3v0vk-69" style="edgeStyle=orthogonalEdgeStyle;rounded=0;orthogonalLoop=1;jettySize=auto;html=1;exitX=0.5;exitY=0;exitDx=0;exitDy=0;entryX=1;entryY=0.5;entryDx=0;entryDy=0;startArrow=none;startFill=0;endArrow=classic;endFill=1;" edge="1" parent="1" source="I9GEyZ0ykOGTKjr3v0vk-7" target="I9GEyZ0ykOGTKjr3v0vk-2">
          <mxGeometry relative="1" as="geometry">
            <Array as="points">
              <mxPoint x="489" y="130" />
              <mxPoint x="990" y="130" />
              <mxPoint x="990" y="355" />
            </Array>
          </mxGeometry>
        </mxCell>
        <mxCell id="I9GEyZ0ykOGTKjr3v0vk-71" style="edgeStyle=orthogonalEdgeStyle;rounded=0;orthogonalLoop=1;jettySize=auto;html=1;exitX=0.5;exitY=0;exitDx=0;exitDy=0;entryX=1;entryY=0.5;entryDx=0;entryDy=0;startArrow=none;startFill=0;endArrow=classic;endFill=1;" edge="1" parent="1" source="I9GEyZ0ykOGTKjr3v0vk-7" target="I9GEyZ0ykOGTKjr3v0vk-3">
          <mxGeometry relative="1" as="geometry">
            <Array as="points">
              <mxPoint x="489" y="130" />
              <mxPoint x="990" y="130" />
              <mxPoint x="990" y="495" />
            </Array>
          </mxGeometry>
        </mxCell>
        <mxCell id="I9GEyZ0ykOGTKjr3v0vk-72" style="edgeStyle=orthogonalEdgeStyle;rounded=0;orthogonalLoop=1;jettySize=auto;html=1;exitX=0.5;exitY=0;exitDx=0;exitDy=0;entryX=1;entryY=0.5;entryDx=0;entryDy=0;startArrow=none;startFill=0;endArrow=classic;endFill=1;" edge="1" parent="1" source="I9GEyZ0ykOGTKjr3v0vk-7" target="I9GEyZ0ykOGTKjr3v0vk-4">
          <mxGeometry relative="1" as="geometry">
            <Array as="points">
              <mxPoint x="489" y="130" />
              <mxPoint x="990" y="130" />
              <mxPoint x="990" y="635" />
            </Array>
          </mxGeometry>
        </mxCell>
        <mxCell id="I9GEyZ0ykOGTKjr3v0vk-73" style="edgeStyle=orthogonalEdgeStyle;rounded=0;orthogonalLoop=1;jettySize=auto;html=1;exitX=0.5;exitY=0;exitDx=0;exitDy=0;entryX=1;entryY=0.5;entryDx=0;entryDy=0;startArrow=none;startFill=0;endArrow=classic;endFill=1;" edge="1" parent="1" source="I9GEyZ0ykOGTKjr3v0vk-7" target="I9GEyZ0ykOGTKjr3v0vk-33">
          <mxGeometry relative="1" as="geometry">
            <Array as="points">
              <mxPoint x="489" y="130" />
              <mxPoint x="990" y="130" />
              <mxPoint x="990" y="775" />
            </Array>
          </mxGeometry>
        </mxCell>
        <mxCell id="I9GEyZ0ykOGTKjr3v0vk-7" value="api" style="rounded=1;whiteSpace=wrap;html=1;" vertex="1" parent="1">
          <mxGeometry x="429" y="220" width="120" height="100" as="geometry" />
        </mxCell>
        <mxCell id="I9GEyZ0ykOGTKjr3v0vk-15" style="edgeStyle=orthogonalEdgeStyle;rounded=0;orthogonalLoop=1;jettySize=auto;html=1;exitX=1;exitY=0.5;exitDx=0;exitDy=0;entryX=0.008;entryY=0.453;entryDx=0;entryDy=0;entryPerimeter=0;" edge="1" parent="1" source="I9GEyZ0ykOGTKjr3v0vk-12" target="I9GEyZ0ykOGTKjr3v0vk-7">
          <mxGeometry relative="1" as="geometry" />
        </mxCell>
        <mxCell id="I9GEyZ0ykOGTKjr3v0vk-17" style="edgeStyle=orthogonalEdgeStyle;rounded=0;orthogonalLoop=1;jettySize=auto;html=1;exitX=1;exitY=0.5;exitDx=0;exitDy=0;entryX=-0.008;entryY=0.579;entryDx=0;entryDy=0;entryPerimeter=0;" edge="1" parent="1" source="I9GEyZ0ykOGTKjr3v0vk-12" target="I9GEyZ0ykOGTKjr3v0vk-14">
          <mxGeometry relative="1" as="geometry" />
        </mxCell>
        <mxCell id="I9GEyZ0ykOGTKjr3v0vk-12" value="load balancer" style="rhombus;whiteSpace=wrap;html=1;" vertex="1" parent="1">
          <mxGeometry x="180" y="415" width="150" height="160" as="geometry" />
        </mxCell>
        <mxCell id="I9GEyZ0ykOGTKjr3v0vk-21" style="edgeStyle=orthogonalEdgeStyle;rounded=0;orthogonalLoop=1;jettySize=auto;html=1;exitX=0.5;exitY=0;exitDx=0;exitDy=0;entryX=0.5;entryY=1;entryDx=0;entryDy=0;startArrow=classic;startFill=1;" edge="1" parent="1" source="I9GEyZ0ykOGTKjr3v0vk-14" target="I9GEyZ0ykOGTKjr3v0vk-18">
          <mxGeometry relative="1" as="geometry" />
        </mxCell>
        <mxCell id="I9GEyZ0ykOGTKjr3v0vk-63" style="edgeStyle=orthogonalEdgeStyle;rounded=0;orthogonalLoop=1;jettySize=auto;html=1;exitX=0.5;exitY=1;exitDx=0;exitDy=0;entryX=1;entryY=0.5;entryDx=0;entryDy=0;startArrow=none;startFill=0;endArrow=classic;endFill=1;" edge="1" parent="1" source="I9GEyZ0ykOGTKjr3v0vk-14" target="I9GEyZ0ykOGTKjr3v0vk-33">
          <mxGeometry relative="1" as="geometry">
            <Array as="points">
              <mxPoint x="489" y="860" />
              <mxPoint x="990" y="860" />
              <mxPoint x="990" y="775" />
            </Array>
          </mxGeometry>
        </mxCell>
        <mxCell id="I9GEyZ0ykOGTKjr3v0vk-64" style="edgeStyle=orthogonalEdgeStyle;rounded=0;orthogonalLoop=1;jettySize=auto;html=1;exitX=0.5;exitY=1;exitDx=0;exitDy=0;entryX=1;entryY=0.5;entryDx=0;entryDy=0;startArrow=none;startFill=0;endArrow=classic;endFill=1;" edge="1" parent="1" source="I9GEyZ0ykOGTKjr3v0vk-14" target="I9GEyZ0ykOGTKjr3v0vk-4">
          <mxGeometry relative="1" as="geometry">
            <Array as="points">
              <mxPoint x="489" y="860" />
              <mxPoint x="990" y="860" />
              <mxPoint x="990" y="635" />
            </Array>
          </mxGeometry>
        </mxCell>
        <mxCell id="I9GEyZ0ykOGTKjr3v0vk-65" style="edgeStyle=orthogonalEdgeStyle;rounded=0;orthogonalLoop=1;jettySize=auto;html=1;exitX=0.5;exitY=1;exitDx=0;exitDy=0;entryX=1;entryY=0.5;entryDx=0;entryDy=0;startArrow=none;startFill=0;endArrow=classic;endFill=1;" edge="1" parent="1" source="I9GEyZ0ykOGTKjr3v0vk-14" target="I9GEyZ0ykOGTKjr3v0vk-3">
          <mxGeometry relative="1" as="geometry">
            <Array as="points">
              <mxPoint x="489" y="860" />
              <mxPoint x="990" y="860" />
              <mxPoint x="990" y="495" />
            </Array>
          </mxGeometry>
        </mxCell>
        <mxCell id="I9GEyZ0ykOGTKjr3v0vk-66" style="edgeStyle=orthogonalEdgeStyle;rounded=0;orthogonalLoop=1;jettySize=auto;html=1;exitX=0.5;exitY=1;exitDx=0;exitDy=0;entryX=1;entryY=0.5;entryDx=0;entryDy=0;startArrow=none;startFill=0;endArrow=classic;endFill=1;" edge="1" parent="1" source="I9GEyZ0ykOGTKjr3v0vk-14" target="I9GEyZ0ykOGTKjr3v0vk-2">
          <mxGeometry relative="1" as="geometry">
            <Array as="points">
              <mxPoint x="489" y="860" />
              <mxPoint x="990" y="860" />
              <mxPoint x="990" y="355" />
            </Array>
          </mxGeometry>
        </mxCell>
        <mxCell id="I9GEyZ0ykOGTKjr3v0vk-67" style="edgeStyle=orthogonalEdgeStyle;rounded=0;orthogonalLoop=1;jettySize=auto;html=1;exitX=0.5;exitY=1;exitDx=0;exitDy=0;entryX=1;entryY=0.5;entryDx=0;entryDy=0;startArrow=none;startFill=0;endArrow=classic;endFill=1;" edge="1" parent="1" source="I9GEyZ0ykOGTKjr3v0vk-14" target="I9GEyZ0ykOGTKjr3v0vk-1">
          <mxGeometry relative="1" as="geometry">
            <Array as="points">
              <mxPoint x="489" y="860" />
              <mxPoint x="990" y="860" />
              <mxPoint x="990" y="215" />
            </Array>
          </mxGeometry>
        </mxCell>
        <mxCell id="I9GEyZ0ykOGTKjr3v0vk-14" value="api" style="rounded=1;whiteSpace=wrap;html=1;" vertex="1" parent="1">
          <mxGeometry x="429" y="660" width="120" height="100" as="geometry" />
        </mxCell>
        <mxCell id="I9GEyZ0ykOGTKjr3v0vk-49" style="edgeStyle=orthogonalEdgeStyle;rounded=0;orthogonalLoop=1;jettySize=auto;html=1;exitX=1;exitY=0.5;exitDx=0;exitDy=0;entryX=0;entryY=0.5;entryDx=0;entryDy=0;startArrow=classic;startFill=1;endArrow=none;endFill=0;" edge="1" parent="1" source="I9GEyZ0ykOGTKjr3v0vk-18" target="I9GEyZ0ykOGTKjr3v0vk-1">
          <mxGeometry relative="1" as="geometry" />
        </mxCell>
        <mxCell id="I9GEyZ0ykOGTKjr3v0vk-18" value="eureka" style="rhombus;whiteSpace=wrap;html=1;" vertex="1" parent="1">
          <mxGeometry x="414" y="415" width="150" height="160" as="geometry" />
        </mxCell>
        <mxCell id="I9GEyZ0ykOGTKjr3v0vk-32" style="edgeStyle=orthogonalEdgeStyle;rounded=0;orthogonalLoop=1;jettySize=auto;html=1;exitX=0.5;exitY=0.5;exitDx=0;exitDy=0;exitPerimeter=0;entryX=0.5;entryY=0;entryDx=0;entryDy=0;" edge="1" parent="1" source="I9GEyZ0ykOGTKjr3v0vk-22" target="I9GEyZ0ykOGTKjr3v0vk-12">
          <mxGeometry relative="1" as="geometry" />
        </mxCell>
        <mxCell id="I9GEyZ0ykOGTKjr3v0vk-22" value="client" style="shape=umlActor;verticalLabelPosition=bottom;verticalAlign=top;html=1;outlineConnect=0;" vertex="1" parent="1">
          <mxGeometry x="40" y="240" width="30" height="60" as="geometry" />
        </mxCell>
        <mxCell id="I9GEyZ0ykOGTKjr3v0vk-27" style="edgeStyle=orthogonalEdgeStyle;rounded=0;orthogonalLoop=1;jettySize=auto;html=1;exitX=0.5;exitY=0.5;exitDx=0;exitDy=0;exitPerimeter=0;entryX=0;entryY=0.5;entryDx=0;entryDy=0;" edge="1" parent="1" source="I9GEyZ0ykOGTKjr3v0vk-23" target="I9GEyZ0ykOGTKjr3v0vk-12">
          <mxGeometry relative="1" as="geometry" />
        </mxCell>
        <mxCell id="I9GEyZ0ykOGTKjr3v0vk-23" value="client" style="shape=umlActor;verticalLabelPosition=bottom;verticalAlign=top;html=1;outlineConnect=0;" vertex="1" parent="1">
          <mxGeometry x="40" y="400" width="30" height="60" as="geometry" />
        </mxCell>
        <mxCell id="I9GEyZ0ykOGTKjr3v0vk-29" style="edgeStyle=orthogonalEdgeStyle;rounded=0;orthogonalLoop=1;jettySize=auto;html=1;exitX=0.5;exitY=0.5;exitDx=0;exitDy=0;exitPerimeter=0;" edge="1" parent="1" source="I9GEyZ0ykOGTKjr3v0vk-24" target="I9GEyZ0ykOGTKjr3v0vk-12">
          <mxGeometry relative="1" as="geometry" />
        </mxCell>
        <mxCell id="I9GEyZ0ykOGTKjr3v0vk-24" value="client" style="shape=umlActor;verticalLabelPosition=bottom;verticalAlign=top;html=1;outlineConnect=0;" vertex="1" parent="1">
          <mxGeometry x="40" y="540" width="30" height="60" as="geometry" />
        </mxCell>
        <mxCell id="I9GEyZ0ykOGTKjr3v0vk-31" style="edgeStyle=orthogonalEdgeStyle;rounded=0;orthogonalLoop=1;jettySize=auto;html=1;exitX=0.5;exitY=0.5;exitDx=0;exitDy=0;exitPerimeter=0;entryX=0.5;entryY=1;entryDx=0;entryDy=0;" edge="1" parent="1" source="I9GEyZ0ykOGTKjr3v0vk-25" target="I9GEyZ0ykOGTKjr3v0vk-12">
          <mxGeometry relative="1" as="geometry" />
        </mxCell>
        <mxCell id="I9GEyZ0ykOGTKjr3v0vk-25" value="client" style="shape=umlActor;verticalLabelPosition=bottom;verticalAlign=top;html=1;outlineConnect=0;" vertex="1" parent="1">
          <mxGeometry x="40" y="680" width="30" height="60" as="geometry" />
        </mxCell>
        <mxCell id="I9GEyZ0ykOGTKjr3v0vk-56" style="edgeStyle=orthogonalEdgeStyle;rounded=0;orthogonalLoop=1;jettySize=auto;html=1;exitX=0;exitY=0.5;exitDx=0;exitDy=0;entryX=1;entryY=0.5;entryDx=0;entryDy=0;startArrow=none;startFill=0;endArrow=classic;endFill=1;" edge="1" parent="1" source="I9GEyZ0ykOGTKjr3v0vk-33" target="I9GEyZ0ykOGTKjr3v0vk-18">
          <mxGeometry relative="1" as="geometry" />
        </mxCell>
        <mxCell id="I9GEyZ0ykOGTKjr3v0vk-33" value="calculation" style="rounded=1;whiteSpace=wrap;html=1;labelPosition=center;verticalLabelPosition=top;align=center;verticalAlign=bottom;" vertex="1" parent="1">
          <mxGeometry x="690" y="720" width="180" height="110" as="geometry" />
        </mxCell>
        <mxCell id="I9GEyZ0ykOGTKjr3v0vk-150" style="edgeStyle=orthogonalEdgeStyle;rounded=0;orthogonalLoop=1;jettySize=auto;html=1;exitX=0.5;exitY=1;exitDx=0;exitDy=0;entryX=0.5;entryY=0;entryDx=0;entryDy=0;entryPerimeter=0;startArrow=none;startFill=0;endArrow=classic;endFill=1;" edge="1" parent="1" source="I9GEyZ0ykOGTKjr3v0vk-74" target="I9GEyZ0ykOGTKjr3v0vk-124">
          <mxGeometry relative="1" as="geometry" />
        </mxCell>
        <mxCell id="I9GEyZ0ykOGTKjr3v0vk-74" value="instance" style="rounded=1;whiteSpace=wrap;html=1;" vertex="1" parent="1">
          <mxGeometry x="700" y="170" width="50" height="20" as="geometry" />
        </mxCell>
        <mxCell id="I9GEyZ0ykOGTKjr3v0vk-151" style="edgeStyle=orthogonalEdgeStyle;rounded=0;orthogonalLoop=1;jettySize=auto;html=1;exitX=0.5;exitY=1;exitDx=0;exitDy=0;entryX=0.5;entryY=0;entryDx=0;entryDy=0;entryPerimeter=0;startArrow=none;startFill=0;endArrow=classic;endFill=1;" edge="1" parent="1" source="I9GEyZ0ykOGTKjr3v0vk-75" target="I9GEyZ0ykOGTKjr3v0vk-125">
          <mxGeometry relative="1" as="geometry" />
        </mxCell>
        <mxCell id="I9GEyZ0ykOGTKjr3v0vk-75" value="instance" style="rounded=1;whiteSpace=wrap;html=1;" vertex="1" parent="1">
          <mxGeometry x="755" y="170" width="50" height="20" as="geometry" />
        </mxCell>
        <mxCell id="I9GEyZ0ykOGTKjr3v0vk-152" style="edgeStyle=orthogonalEdgeStyle;rounded=0;orthogonalLoop=1;jettySize=auto;html=1;exitX=0.5;exitY=1;exitDx=0;exitDy=0;entryX=0.5;entryY=0;entryDx=0;entryDy=0;entryPerimeter=0;startArrow=none;startFill=0;endArrow=classic;endFill=1;" edge="1" parent="1" source="I9GEyZ0ykOGTKjr3v0vk-76" target="I9GEyZ0ykOGTKjr3v0vk-126">
          <mxGeometry relative="1" as="geometry" />
        </mxCell>
        <mxCell id="I9GEyZ0ykOGTKjr3v0vk-76" value="instance" style="rounded=1;whiteSpace=wrap;html=1;" vertex="1" parent="1">
          <mxGeometry x="810" y="170" width="50" height="20" as="geometry" />
        </mxCell>
        <mxCell id="I9GEyZ0ykOGTKjr3v0vk-115" style="edgeStyle=orthogonalEdgeStyle;rounded=0;orthogonalLoop=1;jettySize=auto;html=1;exitX=0.5;exitY=1;exitDx=0;exitDy=0;entryX=0.5;entryY=0;entryDx=0;entryDy=0;entryPerimeter=0;startArrow=none;startFill=0;endArrow=classic;endFill=1;" edge="1" parent="1" source="I9GEyZ0ykOGTKjr3v0vk-80" target="I9GEyZ0ykOGTKjr3v0vk-111">
          <mxGeometry relative="1" as="geometry" />
        </mxCell>
        <mxCell id="I9GEyZ0ykOGTKjr3v0vk-80" value="instance" style="rounded=1;whiteSpace=wrap;html=1;" vertex="1" parent="1">
          <mxGeometry x="700" y="310" width="50" height="20" as="geometry" />
        </mxCell>
        <mxCell id="I9GEyZ0ykOGTKjr3v0vk-117" style="edgeStyle=orthogonalEdgeStyle;rounded=0;orthogonalLoop=1;jettySize=auto;html=1;exitX=0.5;exitY=1;exitDx=0;exitDy=0;entryX=0.5;entryY=0;entryDx=0;entryDy=0;entryPerimeter=0;startArrow=none;startFill=0;endArrow=classic;endFill=1;" edge="1" parent="1" source="I9GEyZ0ykOGTKjr3v0vk-81" target="I9GEyZ0ykOGTKjr3v0vk-112">
          <mxGeometry relative="1" as="geometry" />
        </mxCell>
        <mxCell id="I9GEyZ0ykOGTKjr3v0vk-81" value="instance" style="rounded=1;whiteSpace=wrap;html=1;" vertex="1" parent="1">
          <mxGeometry x="755" y="310" width="50" height="20" as="geometry" />
        </mxCell>
        <mxCell id="I9GEyZ0ykOGTKjr3v0vk-116" style="edgeStyle=orthogonalEdgeStyle;rounded=0;orthogonalLoop=1;jettySize=auto;html=1;exitX=0.5;exitY=1;exitDx=0;exitDy=0;entryX=0.5;entryY=0;entryDx=0;entryDy=0;entryPerimeter=0;startArrow=none;startFill=0;endArrow=classic;endFill=1;" edge="1" parent="1" source="I9GEyZ0ykOGTKjr3v0vk-82" target="I9GEyZ0ykOGTKjr3v0vk-113">
          <mxGeometry relative="1" as="geometry" />
        </mxCell>
        <mxCell id="I9GEyZ0ykOGTKjr3v0vk-82" value="instance" style="rounded=1;whiteSpace=wrap;html=1;" vertex="1" parent="1">
          <mxGeometry x="810" y="310" width="50" height="20" as="geometry" />
        </mxCell>
        <mxCell id="I9GEyZ0ykOGTKjr3v0vk-137" style="edgeStyle=orthogonalEdgeStyle;rounded=0;orthogonalLoop=1;jettySize=auto;html=1;exitX=0.5;exitY=1;exitDx=0;exitDy=0;entryX=0.5;entryY=0;entryDx=0;entryDy=0;entryPerimeter=0;startArrow=none;startFill=0;endArrow=classic;endFill=1;" edge="1" parent="1" source="I9GEyZ0ykOGTKjr3v0vk-92" target="I9GEyZ0ykOGTKjr3v0vk-127">
          <mxGeometry relative="1" as="geometry" />
        </mxCell>
        <mxCell id="I9GEyZ0ykOGTKjr3v0vk-92" value="instance" style="rounded=1;whiteSpace=wrap;html=1;" vertex="1" parent="1">
          <mxGeometry x="700" y="450" width="50" height="20" as="geometry" />
        </mxCell>
        <mxCell id="I9GEyZ0ykOGTKjr3v0vk-138" style="edgeStyle=orthogonalEdgeStyle;rounded=0;orthogonalLoop=1;jettySize=auto;html=1;exitX=0.5;exitY=1;exitDx=0;exitDy=0;entryX=0.5;entryY=0;entryDx=0;entryDy=0;entryPerimeter=0;startArrow=none;startFill=0;endArrow=classic;endFill=1;" edge="1" parent="1" source="I9GEyZ0ykOGTKjr3v0vk-93" target="I9GEyZ0ykOGTKjr3v0vk-128">
          <mxGeometry relative="1" as="geometry" />
        </mxCell>
        <mxCell id="I9GEyZ0ykOGTKjr3v0vk-93" value="instance" style="rounded=1;whiteSpace=wrap;html=1;" vertex="1" parent="1">
          <mxGeometry x="755" y="450" width="50" height="20" as="geometry" />
        </mxCell>
        <mxCell id="I9GEyZ0ykOGTKjr3v0vk-139" style="edgeStyle=orthogonalEdgeStyle;rounded=0;orthogonalLoop=1;jettySize=auto;html=1;exitX=0.5;exitY=1;exitDx=0;exitDy=0;entryX=0.5;entryY=0;entryDx=0;entryDy=0;entryPerimeter=0;startArrow=none;startFill=0;endArrow=classic;endFill=1;" edge="1" parent="1" source="I9GEyZ0ykOGTKjr3v0vk-94" target="I9GEyZ0ykOGTKjr3v0vk-129">
          <mxGeometry relative="1" as="geometry" />
        </mxCell>
        <mxCell id="I9GEyZ0ykOGTKjr3v0vk-94" value="instance" style="rounded=1;whiteSpace=wrap;html=1;" vertex="1" parent="1">
          <mxGeometry x="810" y="450" width="50" height="20" as="geometry" />
        </mxCell>
        <mxCell id="I9GEyZ0ykOGTKjr3v0vk-143" style="edgeStyle=orthogonalEdgeStyle;rounded=0;orthogonalLoop=1;jettySize=auto;html=1;exitX=0.5;exitY=1;exitDx=0;exitDy=0;entryX=0.5;entryY=0;entryDx=0;entryDy=0;entryPerimeter=0;startArrow=none;startFill=0;endArrow=classic;endFill=1;" edge="1" parent="1" source="I9GEyZ0ykOGTKjr3v0vk-98" target="I9GEyZ0ykOGTKjr3v0vk-130">
          <mxGeometry relative="1" as="geometry" />
        </mxCell>
        <mxCell id="I9GEyZ0ykOGTKjr3v0vk-98" value="instance" style="rounded=1;whiteSpace=wrap;html=1;" vertex="1" parent="1">
          <mxGeometry x="700" y="590" width="50" height="20" as="geometry" />
        </mxCell>
        <mxCell id="I9GEyZ0ykOGTKjr3v0vk-144" style="edgeStyle=orthogonalEdgeStyle;rounded=0;orthogonalLoop=1;jettySize=auto;html=1;exitX=0.5;exitY=1;exitDx=0;exitDy=0;entryX=0.5;entryY=0;entryDx=0;entryDy=0;entryPerimeter=0;startArrow=none;startFill=0;endArrow=classic;endFill=1;" edge="1" parent="1" source="I9GEyZ0ykOGTKjr3v0vk-99" target="I9GEyZ0ykOGTKjr3v0vk-131">
          <mxGeometry relative="1" as="geometry" />
        </mxCell>
        <mxCell id="I9GEyZ0ykOGTKjr3v0vk-99" value="instance" style="rounded=1;whiteSpace=wrap;html=1;" vertex="1" parent="1">
          <mxGeometry x="755" y="590" width="50" height="20" as="geometry" />
        </mxCell>
        <mxCell id="I9GEyZ0ykOGTKjr3v0vk-145" style="edgeStyle=orthogonalEdgeStyle;rounded=0;orthogonalLoop=1;jettySize=auto;html=1;exitX=0.5;exitY=1;exitDx=0;exitDy=0;entryX=0.5;entryY=0;entryDx=0;entryDy=0;entryPerimeter=0;startArrow=none;startFill=0;endArrow=classic;endFill=1;" edge="1" parent="1" source="I9GEyZ0ykOGTKjr3v0vk-100" target="I9GEyZ0ykOGTKjr3v0vk-132">
          <mxGeometry relative="1" as="geometry" />
        </mxCell>
        <mxCell id="I9GEyZ0ykOGTKjr3v0vk-100" value="instance" style="rounded=1;whiteSpace=wrap;html=1;" vertex="1" parent="1">
          <mxGeometry x="810" y="590" width="50" height="20" as="geometry" />
        </mxCell>
        <mxCell id="I9GEyZ0ykOGTKjr3v0vk-156" style="edgeStyle=orthogonalEdgeStyle;rounded=0;orthogonalLoop=1;jettySize=auto;html=1;exitX=0.5;exitY=1;exitDx=0;exitDy=0;entryX=0.5;entryY=0;entryDx=0;entryDy=0;entryPerimeter=0;startArrow=none;startFill=0;endArrow=classic;endFill=1;" edge="1" parent="1" source="I9GEyZ0ykOGTKjr3v0vk-104" target="I9GEyZ0ykOGTKjr3v0vk-133">
          <mxGeometry relative="1" as="geometry" />
        </mxCell>
        <mxCell id="I9GEyZ0ykOGTKjr3v0vk-104" value="instance" style="rounded=1;whiteSpace=wrap;html=1;" vertex="1" parent="1">
          <mxGeometry x="700" y="730" width="50" height="20" as="geometry" />
        </mxCell>
        <mxCell id="I9GEyZ0ykOGTKjr3v0vk-157" style="edgeStyle=orthogonalEdgeStyle;rounded=0;orthogonalLoop=1;jettySize=auto;html=1;exitX=0.5;exitY=1;exitDx=0;exitDy=0;entryX=0.5;entryY=0;entryDx=0;entryDy=0;entryPerimeter=0;startArrow=none;startFill=0;endArrow=classic;endFill=1;" edge="1" parent="1" source="I9GEyZ0ykOGTKjr3v0vk-105" target="I9GEyZ0ykOGTKjr3v0vk-134">
          <mxGeometry relative="1" as="geometry" />
        </mxCell>
        <mxCell id="I9GEyZ0ykOGTKjr3v0vk-105" value="instance" style="rounded=1;whiteSpace=wrap;html=1;" vertex="1" parent="1">
          <mxGeometry x="755" y="730" width="50" height="20" as="geometry" />
        </mxCell>
        <mxCell id="I9GEyZ0ykOGTKjr3v0vk-158" style="edgeStyle=orthogonalEdgeStyle;rounded=0;orthogonalLoop=1;jettySize=auto;html=1;exitX=0.5;exitY=1;exitDx=0;exitDy=0;entryX=0.5;entryY=0;entryDx=0;entryDy=0;entryPerimeter=0;startArrow=none;startFill=0;endArrow=classic;endFill=1;" edge="1" parent="1" source="I9GEyZ0ykOGTKjr3v0vk-106" target="I9GEyZ0ykOGTKjr3v0vk-135">
          <mxGeometry relative="1" as="geometry" />
        </mxCell>
        <mxCell id="I9GEyZ0ykOGTKjr3v0vk-106" value="instance" style="rounded=1;whiteSpace=wrap;html=1;" vertex="1" parent="1">
          <mxGeometry x="810" y="730" width="50" height="20" as="geometry" />
        </mxCell>
        <mxCell id="I9GEyZ0ykOGTKjr3v0vk-110" value="pg&lt;br&gt;master" style="shape=cylinder3;whiteSpace=wrap;html=1;boundedLbl=1;backgroundOutline=1;size=15;" vertex="1" parent="1">
          <mxGeometry x="1040" y="450" width="60" height="80" as="geometry" />
        </mxCell>
        <mxCell id="I9GEyZ0ykOGTKjr3v0vk-168" style="edgeStyle=orthogonalEdgeStyle;rounded=0;orthogonalLoop=1;jettySize=auto;html=1;exitX=0.5;exitY=1;exitDx=0;exitDy=0;exitPerimeter=0;entryX=0.5;entryY=0;entryDx=0;entryDy=0;entryPerimeter=0;startArrow=none;startFill=0;endArrow=classic;endFill=1;" edge="1" parent="1" source="I9GEyZ0ykOGTKjr3v0vk-111" target="I9GEyZ0ykOGTKjr3v0vk-110">
          <mxGeometry relative="1" as="geometry">
            <Array as="points">
              <mxPoint x="728" y="420" />
              <mxPoint x="1070" y="420" />
            </Array>
          </mxGeometry>
        </mxCell>
        <mxCell id="I9GEyZ0ykOGTKjr3v0vk-111" value="pg" style="shape=cylinder3;whiteSpace=wrap;html=1;boundedLbl=1;backgroundOutline=1;size=15;" vertex="1" parent="1">
          <mxGeometry x="715" y="360" width="25" height="40" as="geometry" />
        </mxCell>
        <mxCell id="I9GEyZ0ykOGTKjr3v0vk-162" style="edgeStyle=orthogonalEdgeStyle;rounded=0;orthogonalLoop=1;jettySize=auto;html=1;exitX=0.5;exitY=1;exitDx=0;exitDy=0;exitPerimeter=0;entryX=0.5;entryY=0;entryDx=0;entryDy=0;entryPerimeter=0;startArrow=none;startFill=0;endArrow=classic;endFill=1;" edge="1" parent="1" source="I9GEyZ0ykOGTKjr3v0vk-112" target="I9GEyZ0ykOGTKjr3v0vk-110">
          <mxGeometry relative="1" as="geometry">
            <Array as="points">
              <mxPoint x="780" y="420" />
              <mxPoint x="1070" y="420" />
            </Array>
          </mxGeometry>
        </mxCell>
        <mxCell id="I9GEyZ0ykOGTKjr3v0vk-112" value="pg" style="shape=cylinder3;whiteSpace=wrap;html=1;boundedLbl=1;backgroundOutline=1;size=15;" vertex="1" parent="1">
          <mxGeometry x="767.5" y="360" width="25" height="40" as="geometry" />
        </mxCell>
        <mxCell id="I9GEyZ0ykOGTKjr3v0vk-120" style="edgeStyle=orthogonalEdgeStyle;rounded=0;orthogonalLoop=1;jettySize=auto;html=1;exitX=0.5;exitY=1;exitDx=0;exitDy=0;exitPerimeter=0;entryX=0.5;entryY=0;entryDx=0;entryDy=0;entryPerimeter=0;startArrow=none;startFill=0;endArrow=classic;endFill=1;" edge="1" parent="1" source="I9GEyZ0ykOGTKjr3v0vk-113" target="I9GEyZ0ykOGTKjr3v0vk-110">
          <mxGeometry relative="1" as="geometry">
            <Array as="points">
              <mxPoint x="835" y="420" />
              <mxPoint x="1070" y="420" />
            </Array>
          </mxGeometry>
        </mxCell>
        <mxCell id="I9GEyZ0ykOGTKjr3v0vk-113" value="pg" style="shape=cylinder3;whiteSpace=wrap;html=1;boundedLbl=1;backgroundOutline=1;size=15;" vertex="1" parent="1">
          <mxGeometry x="822.5" y="360" width="25" height="40" as="geometry" />
        </mxCell>
        <mxCell id="I9GEyZ0ykOGTKjr3v0vk-153" style="edgeStyle=orthogonalEdgeStyle;rounded=0;orthogonalLoop=1;jettySize=auto;html=1;exitX=0.5;exitY=1;exitDx=0;exitDy=0;exitPerimeter=0;entryX=0.5;entryY=0;entryDx=0;entryDy=0;entryPerimeter=0;startArrow=none;startFill=0;endArrow=classic;endFill=1;" edge="1" parent="1" source="I9GEyZ0ykOGTKjr3v0vk-124" target="I9GEyZ0ykOGTKjr3v0vk-110">
          <mxGeometry relative="1" as="geometry">
            <Array as="points">
              <mxPoint x="726" y="280" />
              <mxPoint x="1070" y="280" />
            </Array>
          </mxGeometry>
        </mxCell>
        <mxCell id="I9GEyZ0ykOGTKjr3v0vk-124" value="pg" style="shape=cylinder3;whiteSpace=wrap;html=1;boundedLbl=1;backgroundOutline=1;size=15;" vertex="1" parent="1">
          <mxGeometry x="713.75" y="220" width="25" height="40" as="geometry" />
        </mxCell>
        <mxCell id="I9GEyZ0ykOGTKjr3v0vk-154" style="edgeStyle=orthogonalEdgeStyle;rounded=0;orthogonalLoop=1;jettySize=auto;html=1;exitX=0.5;exitY=1;exitDx=0;exitDy=0;exitPerimeter=0;entryX=0.5;entryY=0;entryDx=0;entryDy=0;entryPerimeter=0;startArrow=none;startFill=0;endArrow=classic;endFill=1;" edge="1" parent="1" source="I9GEyZ0ykOGTKjr3v0vk-125" target="I9GEyZ0ykOGTKjr3v0vk-110">
          <mxGeometry relative="1" as="geometry">
            <Array as="points">
              <mxPoint x="779" y="280" />
              <mxPoint x="1070" y="280" />
            </Array>
          </mxGeometry>
        </mxCell>
        <mxCell id="I9GEyZ0ykOGTKjr3v0vk-125" value="pg" style="shape=cylinder3;whiteSpace=wrap;html=1;boundedLbl=1;backgroundOutline=1;size=15;" vertex="1" parent="1">
          <mxGeometry x="766.25" y="220" width="25" height="40" as="geometry" />
        </mxCell>
        <mxCell id="I9GEyZ0ykOGTKjr3v0vk-155" style="edgeStyle=orthogonalEdgeStyle;rounded=0;orthogonalLoop=1;jettySize=auto;html=1;exitX=0.5;exitY=1;exitDx=0;exitDy=0;exitPerimeter=0;entryX=0.5;entryY=0;entryDx=0;entryDy=0;entryPerimeter=0;startArrow=none;startFill=0;endArrow=classic;endFill=1;" edge="1" parent="1" source="I9GEyZ0ykOGTKjr3v0vk-126" target="I9GEyZ0ykOGTKjr3v0vk-110">
          <mxGeometry relative="1" as="geometry">
            <Array as="points">
              <mxPoint x="834" y="280" />
              <mxPoint x="1070" y="280" />
            </Array>
          </mxGeometry>
        </mxCell>
        <mxCell id="I9GEyZ0ykOGTKjr3v0vk-126" value="pg" style="shape=cylinder3;whiteSpace=wrap;html=1;boundedLbl=1;backgroundOutline=1;size=15;" vertex="1" parent="1">
          <mxGeometry x="821.25" y="220" width="25" height="40" as="geometry" />
        </mxCell>
        <mxCell id="I9GEyZ0ykOGTKjr3v0vk-140" style="edgeStyle=orthogonalEdgeStyle;rounded=0;orthogonalLoop=1;jettySize=auto;html=1;exitX=0.5;exitY=1;exitDx=0;exitDy=0;exitPerimeter=0;entryX=0.5;entryY=1;entryDx=0;entryDy=0;entryPerimeter=0;startArrow=none;startFill=0;endArrow=classic;endFill=1;" edge="1" parent="1" source="I9GEyZ0ykOGTKjr3v0vk-127" target="I9GEyZ0ykOGTKjr3v0vk-110">
          <mxGeometry relative="1" as="geometry" />
        </mxCell>
        <mxCell id="I9GEyZ0ykOGTKjr3v0vk-127" value="pg" style="shape=cylinder3;whiteSpace=wrap;html=1;boundedLbl=1;backgroundOutline=1;size=15;" vertex="1" parent="1">
          <mxGeometry x="712.5" y="500" width="25" height="40" as="geometry" />
        </mxCell>
        <mxCell id="I9GEyZ0ykOGTKjr3v0vk-164" style="edgeStyle=orthogonalEdgeStyle;rounded=0;orthogonalLoop=1;jettySize=auto;html=1;exitX=0.5;exitY=1;exitDx=0;exitDy=0;exitPerimeter=0;entryX=0.5;entryY=1;entryDx=0;entryDy=0;entryPerimeter=0;startArrow=none;startFill=0;endArrow=classic;endFill=1;" edge="1" parent="1" source="I9GEyZ0ykOGTKjr3v0vk-128" target="I9GEyZ0ykOGTKjr3v0vk-110">
          <mxGeometry relative="1" as="geometry" />
        </mxCell>
        <mxCell id="I9GEyZ0ykOGTKjr3v0vk-128" value="pg" style="shape=cylinder3;whiteSpace=wrap;html=1;boundedLbl=1;backgroundOutline=1;size=15;" vertex="1" parent="1">
          <mxGeometry x="765" y="500" width="25" height="40" as="geometry" />
        </mxCell>
        <mxCell id="I9GEyZ0ykOGTKjr3v0vk-142" style="edgeStyle=orthogonalEdgeStyle;rounded=0;orthogonalLoop=1;jettySize=auto;html=1;exitX=0.5;exitY=1;exitDx=0;exitDy=0;exitPerimeter=0;entryX=0.5;entryY=1;entryDx=0;entryDy=0;entryPerimeter=0;startArrow=none;startFill=0;endArrow=classic;endFill=1;" edge="1" parent="1" source="I9GEyZ0ykOGTKjr3v0vk-129" target="I9GEyZ0ykOGTKjr3v0vk-110">
          <mxGeometry relative="1" as="geometry" />
        </mxCell>
        <mxCell id="I9GEyZ0ykOGTKjr3v0vk-129" value="pg" style="shape=cylinder3;whiteSpace=wrap;html=1;boundedLbl=1;backgroundOutline=1;size=15;" vertex="1" parent="1">
          <mxGeometry x="820" y="500" width="25" height="40" as="geometry" />
        </mxCell>
        <mxCell id="I9GEyZ0ykOGTKjr3v0vk-146" style="edgeStyle=orthogonalEdgeStyle;rounded=0;orthogonalLoop=1;jettySize=auto;html=1;exitX=0.5;exitY=1;exitDx=0;exitDy=0;exitPerimeter=0;entryX=0.5;entryY=1;entryDx=0;entryDy=0;entryPerimeter=0;startArrow=none;startFill=0;endArrow=classic;endFill=1;" edge="1" parent="1" source="I9GEyZ0ykOGTKjr3v0vk-130" target="I9GEyZ0ykOGTKjr3v0vk-110">
          <mxGeometry relative="1" as="geometry" />
        </mxCell>
        <mxCell id="I9GEyZ0ykOGTKjr3v0vk-130" value="pg" style="shape=cylinder3;whiteSpace=wrap;html=1;boundedLbl=1;backgroundOutline=1;size=15;" vertex="1" parent="1">
          <mxGeometry x="712.5" y="640" width="25" height="40" as="geometry" />
        </mxCell>
        <mxCell id="I9GEyZ0ykOGTKjr3v0vk-148" style="edgeStyle=orthogonalEdgeStyle;rounded=0;orthogonalLoop=1;jettySize=auto;html=1;exitX=0.5;exitY=1;exitDx=0;exitDy=0;exitPerimeter=0;entryX=0.5;entryY=1;entryDx=0;entryDy=0;entryPerimeter=0;startArrow=none;startFill=0;endArrow=classic;endFill=1;" edge="1" parent="1" source="I9GEyZ0ykOGTKjr3v0vk-131" target="I9GEyZ0ykOGTKjr3v0vk-110">
          <mxGeometry relative="1" as="geometry" />
        </mxCell>
        <mxCell id="I9GEyZ0ykOGTKjr3v0vk-131" value="pg" style="shape=cylinder3;whiteSpace=wrap;html=1;boundedLbl=1;backgroundOutline=1;size=15;" vertex="1" parent="1">
          <mxGeometry x="765" y="640" width="25" height="40" as="geometry" />
        </mxCell>
        <mxCell id="I9GEyZ0ykOGTKjr3v0vk-149" style="edgeStyle=orthogonalEdgeStyle;rounded=0;orthogonalLoop=1;jettySize=auto;html=1;exitX=0.5;exitY=1;exitDx=0;exitDy=0;exitPerimeter=0;entryX=0.5;entryY=1;entryDx=0;entryDy=0;entryPerimeter=0;startArrow=none;startFill=0;endArrow=classic;endFill=1;" edge="1" parent="1" source="I9GEyZ0ykOGTKjr3v0vk-132" target="I9GEyZ0ykOGTKjr3v0vk-110">
          <mxGeometry relative="1" as="geometry" />
        </mxCell>
        <mxCell id="I9GEyZ0ykOGTKjr3v0vk-132" value="pg" style="shape=cylinder3;whiteSpace=wrap;html=1;boundedLbl=1;backgroundOutline=1;size=15;" vertex="1" parent="1">
          <mxGeometry x="820" y="640" width="25" height="40" as="geometry" />
        </mxCell>
        <mxCell id="I9GEyZ0ykOGTKjr3v0vk-159" style="edgeStyle=orthogonalEdgeStyle;rounded=0;orthogonalLoop=1;jettySize=auto;html=1;exitX=0.5;exitY=1;exitDx=0;exitDy=0;exitPerimeter=0;entryX=0.5;entryY=1;entryDx=0;entryDy=0;entryPerimeter=0;startArrow=none;startFill=0;endArrow=classic;endFill=1;" edge="1" parent="1" source="I9GEyZ0ykOGTKjr3v0vk-133" target="I9GEyZ0ykOGTKjr3v0vk-110">
          <mxGeometry relative="1" as="geometry" />
        </mxCell>
        <mxCell id="I9GEyZ0ykOGTKjr3v0vk-133" value="pg" style="shape=cylinder3;whiteSpace=wrap;html=1;boundedLbl=1;backgroundOutline=1;size=15;" vertex="1" parent="1">
          <mxGeometry x="712.5" y="780" width="25" height="40" as="geometry" />
        </mxCell>
        <mxCell id="I9GEyZ0ykOGTKjr3v0vk-134" value="pg" style="shape=cylinder3;whiteSpace=wrap;html=1;boundedLbl=1;backgroundOutline=1;size=15;" vertex="1" parent="1">
          <mxGeometry x="765" y="780" width="25" height="40" as="geometry" />
        </mxCell>
        <mxCell id="I9GEyZ0ykOGTKjr3v0vk-166" style="edgeStyle=orthogonalEdgeStyle;rounded=0;orthogonalLoop=1;jettySize=auto;html=1;exitX=0.5;exitY=1;exitDx=0;exitDy=0;exitPerimeter=0;entryX=0.5;entryY=1;entryDx=0;entryDy=0;entryPerimeter=0;startArrow=none;startFill=0;endArrow=classic;endFill=1;" edge="1" parent="1" source="I9GEyZ0ykOGTKjr3v0vk-135" target="I9GEyZ0ykOGTKjr3v0vk-110">
          <mxGeometry relative="1" as="geometry" />
        </mxCell>
        <mxCell id="I9GEyZ0ykOGTKjr3v0vk-135" value="pg" style="shape=cylinder3;whiteSpace=wrap;html=1;boundedLbl=1;backgroundOutline=1;size=15;" vertex="1" parent="1">
          <mxGeometry x="820" y="780" width="25" height="40" as="geometry" />
        </mxCell>
      </root>
    </mxGraphModel>
  </diagram>
</mxfile>
